PathFileType	4	(X/Y/Z)	C:/Users/beibeiliu/ov580/test_trc/User2\sequence.31_training_dense_right.trc
DataRate	CameraRate	NumFrames	NumMarkers	Units	OrigDataRate	OrigDataStartFrame	OrigNumFrames
120	120	24	19	mm	120	56	83
Frame#	Time	ThumbCMC			ThumbMCP			ThumbIP			ThumbTip			IndexMCP			IndexPIP			IndexTip			MiddleMCP			MiddlePIP			MiddleTip			RingMCP			RingPIP			RingTip			PinkyMCP			PinkyPIP			PinkyTip			BackHand1			BackHand2			BackHand3	
		X0	Y0	Z0	X1	Y1	Z1	X2	Y2	Z2	X3	Y3	Z3	X4	Y4	Z4	X5	Y5	Z5	X6	Y6	Z6	X7	Y7	Z7	X8	Y8	Z8	X9	Y9	Z9	X10	Y10	Z10	X11	Y11	Z11	X12	Y12	Z12	X13	Y13	Z13	X14	Y14	Z14	X15	Y15	Z15	X16	Y16	Z16	X17	Y17	Z17	X18	Y18	Z18	
55	0.458333	144.37	77.4249	-18.6875	136.781	93.9919	-45.8368	125.875	107.313	-73.224	112.451	111.066	-97.4805	129.991	54.1876	-98.9549	119.012	52.0266	-123.866	108.129	50.6429	-147.074	99.6409	35.4376	-93.7552	71.9515	42.2	-108.382	40.2644	48.4058	-120.069	80.3361	26.4174	-74.2844	55.9725	44.2603	-80.0028	29.8231	54.5499	-80.4278	75.0403	23.4868	-50.5318	57.8681	44.4204	-37.3073	49.3729	67.1697	-30.8876	131.86	10.3778	-40.4951	145.722	12.311	-5.00213	156.749	45.0242	-32.1349	
56	0.466667	144.711	70.6117	-24.457	136.751	87.58	-51.9092	125.604	95.2618	-81.8956	113.524	101.462	-103.892	123.346	42.0374	-101.762	114.564	43.8203	-124.463	100.384	40.3727	-151.626	94.1362	28.6555	-94.5723	66.5636	35.7126	-106.477	36.8013	46.9261	-118.154	76.146	26.1222	-74.5767	49.6334	39.447	-75.0283	27.6651	56.6337	-74.1224	70.5194	23.1825	-50.8134	56.2689	43.5149	-36.585	49.725	66.9439	-24.1637	124.547	3.6573	-38.1893	141.277	5.98861	-7.54804	151.042	33.6349	-34.6372	
57	0.475	145.993	64.0464	-28.6949	138.396	78.0685	-60.1891	126.251	86.8441	-92.1608	114.103	90.6874	-107.333	119.963	34.043	-103.11	105.858	31.2196	-127.135	88.1205	29.3096	-151.24	86.1452	22.1386	-93.3093	58.4053	34.6173	-108.193	30.855	46.1724	-114.557	68.6701	22.0307	-71.2564	47.9812	40.8998	-72.5025	29.3634	65.8078	-72.2794	61.9343	22.6107	-47.3474	58.3324	46.5968	-38.5493	54.0576	73.738	-25.1675	120.45	-0.174697	-39.5845	134.421	-0.454887	-10.448	147.452	24.2014	-36.9368	
58	0.483333	147.559	56.2984	-34.1805	141.799	72.3044	-60.8842	132.045	80.9534	-92.5284	116.694	83.509	-113.269	114.393	26.5194	-102.703	101.003	27.5027	-129.78	82.5769	27.2281	-149.932	84.1066	20.7718	-92.147	52.9913	36.0803	-104.86	28.8537	56.4886	-114.359	68.0951	27.0321	-72.1954	46.3808	48.017	-67.4334	34.2361	72.4518	-66.3873	61.0014	24.5594	-45.8048	58.5335	50.9316	-35.6391	58.847	75.9604	-25.0719	112.619	-4.31025	-36.0134	132.222	-3.64299	-5.1611	146.702	17.9306	-36.4904	
59	0.491667	150.346	53.8712	-33.6358	148.117	70.2461	-63.4418	131.747	74.2042	-93.4114	121.877	82.3328	-113.178	115.158	28.5667	-104.194	97.4298	28.5788	-125.588	75.9509	28.8396	-146.367	80.5225	26.8503	-92.5038	55.2456	44.5739	-103.109	33.0243	64.7036	-107.931	65.2616	32.1731	-67.8261	49.6002	55.9538	-64.0833	39.8957	82.1304	-57.7933	61.421	28.3262	-44.0372	60.5961	55.2202	-32.9127	68.4618	78.9519	-23.9048	109.476	-2.38739	-39.7948	130.888	-3.9468	-5.55026	146.393	14.5613	-35.9683	
60	0.5	156.332	55.8274	-33.0366	147.724	66.8075	-60.9905	138.681	76.5538	-93.2561	127.581	84.4581	-116.008	110.825	29.0067	-104.495	94.5173	34.8251	-128.144	75.1276	38.3441	-148.333	84.6331	32.0144	-90.7027	61.6742	55.0561	-100.293	32.8708	80.8025	-100.809	64.6145	41.2706	-64.8164	54.6647	64.2853	-59.2383	47.2477	93.3104	-50.6203	61.9824	34.3947	-41.0896	68.0919	64.613	-33.0476	71.5037	84.2219	-19.1257	107.961	-1.91882	-37.2994	128.883	-3.49909	-6.428	144.973	14.4237	-39.3998	
61	0.508333	154.012	53.4116	-35.7203	152.454	69.2763	-61.9363	141.432	77.1627	-95.2986	128.246	82.068	-113.595	111.651	33.1177	-101.233	89.3864	37.4908	-124.068	73.8148	45.9982	-143.311	80.4981	36.1123	-85.7759	60.0334	64.1882	-97.1277	40.1272	90.5477	-96.4771	67.8178	45.8427	-64.1896	57.787	69.0027	-58.4765	51.9242	97.7958	-47.2074	63.3034	42.6887	-42.416	65.8382	65.3359	-30.0071	78.444	92.6108	-17.9021	103.633	1.86892	-37.0868	125.116	-1.85255	-6.91997	145.149	17.0325	-39.2382	
62	0.516667	153.626	51.7272	-35.5991	148.283	65.0798	-62.4374	138.21	72.4274	-97.799	130.11	80.4267	-116.862	104.846	31.7066	-99.248	86.5338	37.7953	-119.73	67.6425	48.3364	-143.063	73.8957	40.5584	-88.0068	58.0854	66.0662	-93.8283	36.4073	95.5611	-89.9452	63.2904	44.5811	-60.0748	56.6202	75.629	-56.3895	52.6758	104.711	-43.116	58.3119	41.2212	-38.3283	66.5145	69.7434	-28.7633	81.1098	91.7882	-17.4385	102.151	1.98912	-34.3619	121.626	-3.38705	-3.53454	138.292	15.7351	-38.7486	
63	0.525	151.184	52.1909	-36.4155	145.945	63.9434	-63.1538	138.729	72.5049	-95.9769	128.5	80.4729	-119.396	100.425	32.4437	-98.2834	85.199	41.3402	-123.91	59.9896	49.5068	-138.721	73.2126	40.586	-83.8286	55.9746	65.6014	-89.5705	33.3161	98.0945	-85.9201	61.3109	45.1934	-57.5321	53.435	73.5409	-50.9286	52.685	101.543	-39.8204	57.2552	42.4172	-36.303	65.8317	67.4189	-28.4894	77.2574	90.9321	-15.0318	98.2772	1.28021	-35.8139	120.783	-1.09232	-2.59798	137.72	17.4385	-38.6266	
64	0.533333	152.242	53.2012	-29.2112	147.169	64.3779	-63.7664	140.217	74.6401	-92.327	127.544	79.5136	-116.141	104.112	34.8825	-98.2424	82.4061	43.7787	-122.419	59.2387	51.7549	-136.551	75.835	43.7076	-84.3644	53.714	68.1905	-86.0094	37.8489	98.2787	-85.1299	61.7344	47.3124	-56.7044	51.8101	78.1236	-47.7588	54.632	102.242	-38.8614	58.5635	44.3163	-36.3954	65.1729	71.2411	-24.6363	76.0634	91.2924	-10.9215	96.6414	2.47339	-33.6833	119.871	-1.5991	-2.21617	136.929	16.9053	-34.2842	
65	0.541667	152.028	51.7821	-31.3121	144.435	62.3106	-59.4122	138.531	70.9272	-91.4801	126.767	78.1012	-112.569	101.543	33.0874	-96.3536	77.5313	40.28	-116.668	58.923	49.0777	-132.616	69.3609	41.8377	-82.0502	53.3587	66.2556	-84.7308	38.4301	95.4813	-83.7581	62.0622	49.0812	-57.0816	55.4349	75.5605	-49.5718	56.538	104.598	-37.6776	58.2211	44.7942	-35.5757	65.1754	71.7218	-21.2419	79.4369	88.5622	-11.4059	98.1915	1.14229	-30.5529	121.396	-0.566516	-1.05003	134.925	12.674	-35.9431	
66	0.55	150.189	46.6046	-33.8629	142.529	57.7378	-60.3281	133.965	64.3371	-95.994	121.792	70.9326	-114.637	94.0876	27.8188	-97.9743	78.639	34.8709	-117.708	53.0806	45.3553	-136.297	70.2769	34.9781	-82.325	50.4474	61.9508	-87.0249	32.4549	93.4357	-83.7171	56.5458	45.8863	-56.6452	51.2008	73.7854	-48.7588	55.0524	99.3508	-38.9539	54.7624	40.0774	-36.0145	62.3046	64.117	-25.4839	78.7542	85.3838	-8.96338	92.0672	-4.53419	-32.7194	115.517	-5.41164	-2.87576	133.438	9.61006	-34.3474	
67	0.558333	151.166	41.8957	-37.2605	141.622	52.0684	-64.6907	129.26	57.296	-97.054	122.557	66.5467	-118.147	93.2609	21.7935	-99.7526	75.4239	30.3561	-120.896	50.5456	39.6184	-135.439	69.199	34.2668	-87.3601	49.5665	56.8671	-89.5823	33.2823	86.4376	-87.3099	57.2399	36.9519	-58.6557	52.5595	66.3414	-53.3286	56.1317	95.3717	-41.1465	52.9242	35.7568	-36.3935	65.4809	65.9135	-28.2936	80.2741	81.4355	-13.9753	94.3513	-6.87873	-32.434	115.554	-11.0394	-1.61875	133.648	5.23077	-40.3456	
68	0.566667	155.334	38.803	-39.8944	147.59	48.4078	-65.9341	140.262	56.4868	-102.629	129.422	62.4312	-123.021	98.9896	19.4079	-100.661	78.8951	25.8718	-120.152	58.7125	39.0237	-138.963	70.7555	31.6456	-89.0223	55.4777	56.5561	-92.0508	40.0734	87.5284	-91.0556	60.7119	37.6488	-61.7079	59.2582	66.3222	-57.708	64.2888	98.1797	-45.6552	58.6563	36.3235	-42.0046	68.1923	60.8784	-34.1792	89.6319	81.2983	-19.3651	99.6867	-7.75789	-35.9616	117.902	-11.7316	-7.76074	133.859	0.837456	-40.763	
69	0.575	155.056	31.5556	-43.6371	152.116	42.2211	-69.6796	142.557	48.1358	-106.418	134.253	56.681	-124.461	101.639	17.2756	-108.214	82.9995	24.7575	-125.284	62.1727	36.6629	-141.218	77.9659	29.1109	-91.4928	62.7826	56.9015	-96.2513	45.2528	87.5686	-90.6164	66.7693	35.2276	-64.4414	66.0428	64.3272	-60.1346	68.6177	94.658	-44.2006	64.5795	36.5148	-46.4407	70.0441	60.7955	-33.4942	91.0699	77.194	-20.8967	98.7732	-11.2749	-38.6238	125.908	-13.2339	-9.48683	141.764	-0.322866	-41.6027	
70	0.583333	156.099	30.1382	-42.3876	150.06	39.5257	-72.404	144.164	46.5266	-107.571	134.018	53.2116	-127.873	96.2241	15.1381	-106.79	80.5566	24.3569	-125.498	58.1269	39.0046	-143.596	74.1759	26.0223	-88.0092	62.9879	54.459	-95.1152	46.198	84.7878	-88.869	68.2945	34.9258	-64.3462	65.236	63.4651	-59.0707	72.5495	92.9543	-46.709	63.7236	35.5099	-45.4975	74.2658	62.3215	-32.5534	93.2192	75.5034	-23.7966	97.0713	-11.5049	-38.6872	121.318	-15.104	-12.2786	138.567	-5.60888	-44.1606	
71	0.591667	153.982	30.4913	-43.7645	152.146	41.4673	-72.2027	137.532	47.4575	-104.776	130.102	55.6246	-129.249	96.2405	17.9599	-105.401	73.9224	28.4524	-122.065	57.5962	41.6904	-137.976	73.7994	31.8685	-89.208	59.7609	57.1797	-91.7714	45.8794	92.3764	-86.0625	65.3001	37.6308	-61.2546	61.3634	63.5435	-51.4554	71.2826	95.6996	-39.7826	61.5986	32.6689	-40.3619	72.4434	59.4078	-32.8971	91.7676	73.76	-20.1298	97.6114	-13.5796	-36.2333	123.927	-15.3359	-8.36096	138.542	-1.99314	-41.0231	
72	0.6	154.61	27.6373	-42.4175	147.811	37.1931	-75.3266	135.158	44.1083	-106.186	126.115	52.9613	-128.098	93.3329	15.5244	-102.155	70.1861	28.6902	-122.398	49.5042	44.3593	-134.836	71.2308	30.5001	-86.0954	55.0724	58.9187	-86.7074	46.5409	89.7773	-82.851	64.3945	35.1786	-60.531	64.5375	66.2727	-52.4369	70.4164	93.047	-35.8738	61.3749	31.1583	-40.931	74.9576	60.8414	-30.208	93.2588	77.2094	-15.6796	95.7249	-14.488	-36.8301	117.376	-18.8128	-12.2448	135.202	-4.4577	-47.5443	
73	0.608333	154.817	33.1418	-44.5562	154.107	45.7661	-74.2634	137.708	52.1712	-103.531	130.32	59.8665	-124.932	97.7171	21.8047	-105.368	79.3832	34.9841	-124.212	56.9936	47.0343	-135.75	75.9102	33.2089	-87.7066	60.0058	58.642	-86.8177	46.0428	90.2982	-82.0102	67.7214	36.0145	-62.5569	60.8675	66.0254	-50.7079	67.9232	93.2458	-36.2676	62.4883	31.8783	-40.9733	70.2203	60.3819	-27.6423	89.3643	80.3851	-15.04	100.782	-9.22183	-41.3585	124.945	-14.0904	-12.0542	141.18	1.38738	-44.7817	
74	0.616667	157.917	62.1349	-31.915	154.096	74.7141	-61.7718	145.872	83.5634	-91.3937	136.742	90.4696	-114.513	117.172	43.282	-104.069	96.4418	51.1891	-124.741	72.7047	56.0732	-136.8	91.1777	44.0794	-89.8018	64.6861	63.3278	-89.2735	42.2451	84.148	-84.1814	78.0951	37.9796	-67.5493	60.6997	65.7053	-53.1667	56.5309	87.1728	-38.6745	72.1584	30.7251	-48.0132	68.9794	60.0468	-30.9202	79.5363	80.5043	-14.9366	119.715	1.50918	-44.4265	141.703	2.29418	-11.0911	155.014	25.4631	-42.9312	
75	0.625	153.97	77.741	-24.0728	151.868	94.4581	-49.0094	146.377	105.075	-80.497	140.961	112.768	-107.361	130.866	56.4937	-104.626	113.451	59.5991	-125.686	93.558	62.3514	-145.552	108.882	46.5861	-93.4999	74.9403	59.0964	-98.1492	41.7321	71.1479	-93.7536	87.3627	35.9325	-73.5143	68.8285	50.7384	-65.8472	49.8686	69.7705	-46.899	86.4915	21.8604	-56.9995	71.757	41.8442	-41.13	66.8866	64.8632	-20.7366	139.862	9.47115	-46.6576	153.861	13.0878	-11.0122	166.01	44.3251	-37.563	
76	0.633333	151.277	65.9718	-27.0436	149.129	79.6282	-58.9514	142.451	87.7671	-88.6018	138.618	99.148	-111.068	132.534	38.8994	-105.801	115.78	44.8081	-130.534	90.2813	40.9198	-152.193	106.775	30.6431	-99.1962	74.0578	38.7764	-103.818	44.4431	51.0591	-101.217	91.7914	19.521	-79.0983	64.2932	34.4422	-70.1956	46.7369	51.7038	-55.317	88.0785	7.80118	-61.441	72.2151	26.6685	-47.1291	64.6475	51.1438	-30.1668	142.449	-0.229617	-46.079	155.184	-1.47171	-16.9801	164.432	31.8878	-35.8707	
77	0.641667	151.794	42.2564	-40.1378	145.534	50.6826	-67.9061	140.477	55.3048	-101.681	134.82	63.3696	-125.257	122.744	10.8404	-117.805	102.776	10.9184	-136.04	78.1804	7.78553	-152.681	96.2036	2.44169	-102.433	68.6726	16.5152	-107.402	35.7685	28.234	-102.64	77.3685	-3.64305	-79.3236	61.9302	15.2934	-74.1301	45.1211	36.5763	-62.0908	76.9121	-13.9165	-58.5722	65.5622	11.0016	-45.9506	62.0341	36.3442	-31.4688	132.296	-25.3132	-51.6606	146.611	-23.0057	-20.5275	157.079	3.67071	-46.0447	
78	0.65	152.27	28.2815	-46.7131	146.115	35.3822	-76.2421	137.46	31.4698	-115.402	128.17	32.4078	-135.683	121.257	-13.6433	-115.198	100.861	-14.3873	-137.881	74.719	-20.509	-151.748	99.7865	-21.297	-103.119	66.1207	-11.9179	-106.669	36.1342	3.16997	-104.229	80.8382	-26.4536	-80.0253	58.0431	-9.06548	-73.9849	43.25	14.8717	-63.0337	78.1416	-30.6501	-59.1764	67.2747	-10.5859	-48.7178	63.0617	15.9793	-40.628	137.862	-42.284	-52.3635	155.503	-32.4542	-21.4986	159.181	-10.596	-51.8286	
